<?xml version="1.0" encoding="UTF-8"?><svg id="Layer_1" xmlns="http://www.w3.org/2000/svg" width="63.42" height="71.19" viewBox="0 0 63.42 71.19"><defs><style>.cls-1{fill:#7a5622;}.cls-2{fill:#f7b5c0;}.cls-3{fill:#d32027;}.cls-4,.cls-5{fill:none;stroke:#231f20;stroke-miterlimit:10;stroke-width:.75px;}.cls-5{stroke-linecap:square;}.cls-6{fill:#ec1c24;}</style></defs><path class="cls-1" d="M19.88,2.25c3.31,3.78,5.13,6.43,6.77,10.22.58,1.31,1.12,2.76,1.71,4.43.88.34,2.16-.15,2.76-.55-.15-1.23-.36-2.34-.61-3.39-1.06-4.4-2.96-7.51-5.38-12.42l-.11-.05c-2.01.5-2.15,1.79-5.12,1.75Z"/><path class="cls-6" d="M54.48,52.99c-1.71,4.24-5.45,12.59-10.47,13.83,1.85-2.54,6.4-8.58,8.88-14.92,2.08-5.32,4.85-13.27,7.28-18.58.33-.11.53-.12.54.04,0,0,0,0,0,.01.1,2.34-3.75,13.44-6.23,19.62ZM40.54,69.83c10.99,3.27,25.23-33.22,21.98-45.15-4.48-16.46-18.07-15.2-31.93-11.73l-.09.02c.26,1.05.46,2.16.61,3.39-.59.4-1.88.89-2.76.55-.58-1.68-1.13-3.12-1.71-4.43l-.07.03c-.87-.09-1.02-.2-1.78-.3C6.96,9.89-3.18,13.94,1.62,38.64c2.5,12.82,16.69,36.36,26.44,31.49,4.16-2.08,9.77-1.1,12.48-.3ZM5.29,26.38c-.52-1.64.6-5.85,1.85-7.35,1.77-2.13,3.88-2.65,4.76-2.76l.68-.03c1.9.16,4.69,1.21,3.61,3.64-.45,1-3.42.4-6.16,2.78-2.7,2.33-3.61,7.31-4.75,3.72Z"/><path class="cls-2" d="M7.15,19.02c-1.25,1.51-2.38,5.72-1.85,7.35,1.14,3.59,2.06-1.38,4.75-3.72,2.74-2.38,5.72-1.78,6.16-2.78,1.08-2.43-1.71-3.48-3.61-3.64l-.68.03c-.89.11-2.99.63-4.76,2.76Z"/><path class="cls-3" d="M60.71,33.37s0-.01,0-.01c-.01-.16-.21-.15-.54-.04-2.42,5.31-5.2,13.26-7.28,18.58-2.48,6.34-7.03,12.38-8.88,14.92,5.01-1.24,8.76-9.59,10.47-13.83,2.48-6.18,6.33-17.28,6.23-19.62Z"/><path class="cls-4" d="M30.59,12.94c13.86-3.46,27.45-4.72,31.93,11.73,3.24,11.93-10.99,48.42-21.98,45.15-2.7-.8-8.32-1.78-12.48.3-9.74,4.87-23.94-18.67-26.44-31.49C-3.18,13.94,6.96,9.89,24.79,12.2c.77.1.91.21,1.78.3"/><path class="cls-5" d="M25.11.54c2.42,4.91,4.32,8.02,5.38,12.42.26,1.05.46,2.16.61,3.39-.59.4-1.88.89-2.76.55-.58-1.68-1.13-3.12-1.71-4.43-1.63-3.78-3.46-6.44-6.77-10.22,2.97.04,3.11-1.25,5.12-1.75"/><path class="cls-4" d="M38.04,14.08c-3.12.46-5.67,2.69-8.72,2.97-1.55.14-2.57-.4-3.96-.99-.48-.21-1.76-.74-3.56-1-.05-.01-.1-.02-.13-.02"/></svg>