<?xml version="1.0" encoding="UTF-8"?><svg xmlns="http://www.w3.org/2000/svg" width="3.54in" height="3.37in" viewBox="0 0 255.19 242.66"><defs><style>.cls-1{fill:#f1f1f1;}.cls-2{fill:gray;}.cls-3{mix-blend-mode:multiply;opacity:.5;}.cls-4{fill:#9dcadb;}.cls-5{fill:#e5e5e5;}.cls-6{isolation:isolate;}.cls-7{fill:#fff;}.cls-8{fill:#666;}.cls-9{stroke-linecap:round;stroke-linejoin:round;stroke-width:.5px;}.cls-9,.cls-10{fill:none;stroke:#000;}.cls-10{stroke-miterlimit:10;}.cls-11{fill:#cbcbcb;}.cls-12{fill:#989898;}.cls-13{fill:#b2b2b2;}</style></defs><g class="cls-6"><g id="Layer_1"><path class="cls-4" d="M246.59,47.91c-.15,0-.29.03-.44.1l-3.44.11v-.17s-.01-41.44-.01-41.44c0-1.65-.66-3.13-1.73-4.22-1.09-1.11-2.61-1.79-4.28-1.79H34.57c-1.71,0-3.25.72-4.35,1.87l-.04-.04L2.16,29.68l.1.1c-1.09,1.09-1.76,2.59-1.76,4.25v202.12c0,3.32,2.69,6.01,6.01,6.01h202.12c1.75,0,3.33-.75,4.42-1.95l.04.04,24.98-23.52c3.81-3.18,4.63-8.31,4.63-11.62v-18.34l3.89-.1v-.09c4.47,0,8.1-31.04,8.1-69.33s-3.63-69.34-8.1-69.34Z"/><path class="cls-10" d="M2.26,29.78c-1.09,1.09-1.76,2.59-1.76,4.25v202.12c0,3.32,2.69,6.01,6.01,6.01h202.12c1.75,0,3.33-.75,4.42-1.95.99-1.07,1.59-2.49,1.59-4.06V34.03c0-1.42-.49-2.72-1.32-3.75-1.1-1.38-2.79-2.26-4.69-2.26H6.51c-1.66,0-3.16.67-4.25,1.76Z"/><path class="cls-10" d="M242.7,47.95V6.51c0-1.65-.66-3.13-1.73-4.22-1.09-1.11-2.61-1.79-4.28-1.79H34.57c-1.71,0-3.25.72-4.35,1.87"/><path class="cls-10" d="M213.09,240.25l24.98-23.52c3.81-3.18,4.63-8.31,4.63-11.62v-18.21"/><polyline class="cls-10" points="30.74 1.78 30.18 2.33 2.16 29.68 2.14 29.7"/><line class="cls-10" x1="240.93" y1="2.32" x2="213.55" y2="30.11"/><path class="cls-10" d="M113.15,208.41c-1.98.16-3.97.24-5.99.24-40.32,0-73.01-32.69-73.01-73.02v-.27c.15-40.2,32.78-72.74,73.01-72.74,2.02,0,4.01.08,5.99.24"/><path class="cls-10" d="M180.15,137.41c.01-.59.02-1.19.02-1.78"/><path class="cls-10" d="M179.8,142.99c.05-.48.09-.97.13-1.45.03-.32.05-.65.07-.97.04-.45.06-.91.08-1.37.03-.58.05-1.17.07-1.76"/><path class="cls-10" d="M179.41,146.2c.06-.42.12-.84.17-1.26"/><path class="cls-10" d="M178.89,149.3c.07-.35.13-.7.19-1.06"/><path class="cls-10" d="M178.35,151.88c.1-.41.19-.82.27-1.23"/><path class="cls-10" d="M174.14,164.73c.18-.4.35-.8.51-1.21.17-.39.33-.79.48-1.19"/><path class="cls-10" d="M167.62,176.58c.25-.36.49-.72.72-1.09"/><path class="cls-10" d="M166.8,177.76c.2-.28.39-.56.59-.84"/><path class="cls-10" d="M165.03,180.16c.34-.44.67-.88,1-1.34"/><path class="cls-10" d="M157.31,188.7c.37-.34.74-.7,1.1-1.07.4-.38.8-.78,1.18-1.18.78-.8,1.53-1.61,2.26-2.44"/><path class="cls-10" d="M153.47,192.09c.43-.35.85-.7,1.27-1.08.83-.7,1.64-1.43,2.43-2.18"/><path class="cls-10" d="M149.53,195.1c.45-.31.89-.63,1.32-.96.45-.33.88-.66,1.32-1.01"/><path class="cls-10" d="M146.93,196.88c.39-.25.78-.51,1.16-.77"/><path class="cls-10" d="M142.55,199.51c.45-.24.89-.5,1.34-.76.48-.28.96-.56,1.43-.86"/><path class="cls-10" d="M137.17,202.21c.38-.16.75-.34,1.12-.51.46-.22.91-.44,1.36-.66"/><path class="cls-10" d="M133.51,203.74c.32-.12.64-.24.96-.37.36-.14.71-.29,1.06-.44"/><path class="cls-10" d="M122.77,206.97c.39-.08.78-.17,1.16-.26"/><path class="cls-10" d="M118.03,207.85c.45-.07.9-.14,1.34-.22l1.05-.18c.44-.08.88-.17,1.31-.26"/><path class="cls-10" d="M113.15,208.41c.88-.07,1.75-.16,2.62-.26"/><path class="cls-10" d="M113.15,62.86c-37.43,3.05-66.87,34.32-67.01,72.5v.27c0,38.31,29.49,69.73,67.01,72.78.88-.07,1.75-.16,2.62-.26.76-.09,1.51-.19,2.26-.3.45-.07.9-.14,1.34-.22l1.05-.18c.44-.08.88-.17,1.31-.26.35-.06.69-.14,1.04-.22.39-.08.77-.16,1.16-.26,3.28-.77,6.48-1.76,9.58-2.97.32-.11.64-.24.96-.37.36-.14.71-.29,1.06-.44.55-.23,1.1-.47,1.64-.72.38-.16.75-.33,1.12-.51.46-.21.91-.43,1.36-.66.98-.48,1.95-.99,2.9-1.53.45-.24.9-.5,1.34-.76.48-.28.96-.56,1.43-.86.54-.33,1.08-.67,1.61-1.01.39-.26.78-.51,1.16-.77.49-.33.97-.67,1.44-1.01.44-.31.88-.63,1.32-.96s.88-.67,1.32-1.01.87-.69,1.3-1.04c.43-.36.85-.71,1.27-1.08.83-.71,1.64-1.43,2.43-2.18.05-.04.09-.08.14-.13.37-.35.74-.71,1.1-1.07.4-.39.79-.78,1.18-1.18.77-.8,1.53-1.61,2.26-2.44,1.1-1.25,2.17-2.53,3.18-3.85.34-.44.67-.89,1-1.34.26-.35.52-.7.77-1.06.2-.28.39-.56.59-.84.07-.11.15-.22.23-.34.24-.36.48-.72.72-1.09,2.22-3.4,4.17-7,5.8-10.76.18-.4.35-.8.51-1.21.17-.39.33-.79.48-1.19,1.33-3.37,2.41-6.86,3.22-10.45.1-.41.19-.82.27-1.23.1-.44.19-.89.27-1.35.07-.35.13-.7.19-1.06.12-.67.23-1.35.33-2.04.06-.42.12-.84.17-1.26.08-.64.16-1.3.22-1.95.05-.48.1-.97.13-1.45.03-.32.05-.65.07-.97.04-.46.06-.91.08-1.37.03-.58.05-1.17.07-1.76v-.03c.01-.59.02-1.18.02-1.78v-.27c-.14-38.18-29.58-69.46-67.02-72.5Z"/><path class="cls-10" d="M232.43,187.12c-.07,0-.14-.01-.21-.02-4.37-.95-7.88-31.62-7.88-69.31s3.62-69.33,8.09-69.33"/><path class="cls-10" d="M246.15,48.01c.15-.07.29-.1.44-.1,4.47,0,8.1,31.04,8.1,69.34s-3.63,69.33-8.1,69.33c-3.03,0-5.67-14.3-7.06-35.46-.65-10.01-1.03-21.57-1.03-33.87,0-1.76.01-3.5.02-5.23.09-10.12.43-19.63.98-28.08,1.22-19.07,3.46-32.69,6.08-35.49.19-.2.38-.35.57-.44Z"/><polyline class="cls-10" points="232.35 48.45 232.43 48.45 242.71 48.12 246.15 48.01 246.6 48"/><polyline class="cls-10" points="232.44 187.03 242.7 186.77 246.59 186.67 246.79 186.67"/><path class="cls-10" d="M63.6,15.49c-9.93-1.2-15.83-2.71-15.83-4.35,0-3.94,34.35-7.14,76.72-7.14,2.32,0,4.62,0,6.89.03,39.14.32,69.83,3.39,69.83,7.11,0,1.77-6.89,3.39-18.31,4.64"/><path class="cls-10" d="M63.6,15.49c14.07-1.54,35.02-2.51,58.41-2.51h.42c24.64,0,46.53,1.1,60.47,2.8"/><path class="cls-10" d="M63.6,15.49c12.62,1.53,31.76,2.58,53.55,2.77,2.42.02,4.86.03,7.34.03,23.39,0,44.34-.98,58.41-2.51"/><path class="cls-10" d="M113.51,163.9c-1.83.36-3.73.55-5.67.55-16.31,0-29.53-13.22-29.53-29.53s13.22-29.53,29.53-29.53c.17,0,.34,0,.51.01,16.08.27,29.02,13.38,29.02,29.52,0,14.37-10.26,26.34-23.85,28.98"/><path class="cls-10" d="M113.52,163.9h-.01c-15.91-.47-28.66-13.5-28.66-29.52,0-14.24,10.08-26.13,23.5-28.91"/><ellipse class="cls-9" cx="247.42" cy="118.47" rx="3.83" ry="29.53"/><g class="cls-3"><path class="cls-1" d="M246.15,48.01c.15-.07.29-.1.44-.1,4.47,0,8.1,31.04,8.1,69.34s-3.63,69.33-8.1,69.33c-3.03,0-5.67-14.3-7.06-35.46-.65-10.01-1.03-21.57-1.03-33.87,0-1.76.01-3.5.02-5.23.09-10.12.43-19.63.98-28.08,1.22-19.07,3.46-32.69,6.08-35.49.19-.2.38-.35.57-.44ZM251.25,118.47c0-16.31-1.71-29.53-3.83-29.53s-3.83,13.22-3.83,29.53,1.71,29.53,3.83,29.53,3.83-13.22,3.83-29.53Z"/><ellipse class="cls-8" cx="247.42" cy="118.47" rx="3.83" ry="29.53"/><path class="cls-13" d="M246.59,186.67l-3.89.1-10.26.26-.22.07c-4.37-.95-7.88-31.62-7.88-69.31s3.62-69.33,8.09-69.33h0s10.28-.34,10.28-.34l3.44-.11c-.19.09-.38.24-.57.44-2.62,2.8-4.86,16.42-6.08,35.49-.55,8.45-.89,17.96-.98,28.08-.01,1.73-.02,3.47-.02,5.23,0,12.3.38,23.86,1.03,33.87,1.39,21.16,4.03,35.46,7.06,35.46v.09Z"/><path class="cls-5" d="M232.22,187.1l.22-.07,10.26-.26v18.34c0,3.31-.82,8.44-4.63,11.62l-24.98,23.52-.04-.04c.99-1.07,1.59-2.49,1.59-4.06V34.03c0-1.42-.49-2.72-1.32-3.75l.23-.17,27.38-27.79.04-.03c1.07,1.09,1.73,2.57,1.73,4.22v41.61s-10.27.33-10.27.33h0c-4.47,0-8.09,31.05-8.09,69.34s3.51,68.36,7.88,69.31Z"/><path class="cls-5" d="M30.22,2.37c1.1-1.15,2.64-1.87,4.35-1.87h202.12c1.67,0,3.19.68,4.28,1.79l-.04.03-27.38,27.79-.23.17c-1.1-1.38-2.79-2.26-4.69-2.26H6.51c-1.66,0-3.16.67-4.25,1.76l-.1-.1L30.18,2.33l.04.04ZM182.9,15.78c11.42-1.25,18.31-2.87,18.31-4.64,0-3.72-30.69-6.79-69.83-7.11-2.27-.02-4.57-.03-6.89-.03-42.37,0-76.72,3.2-76.72,7.14,0,1.64,5.9,3.15,15.83,4.35,12.62,1.53,31.76,2.58,53.55,2.77,2.42.02,4.86.03,7.34.03,23.39,0,44.34-.98,58.41-2.51Z"/><path class="cls-7" d="M214.64,34.03v202.12c0,1.57-.6,2.99-1.59,4.06-1.09,1.2-2.67,1.95-4.42,1.95H6.51c-3.32,0-6.01-2.69-6.01-6.01V34.03c0-1.66.67-3.16,1.76-4.25s2.59-1.76,4.25-1.76h202.12c1.9,0,3.59.88,4.69,2.26.83,1.03,1.32,2.33,1.32,3.75ZM180.17,135.63v-.27c-.14-38.18-29.58-69.46-67.02-72.5-1.98-.16-3.97-.24-5.99-.24-40.23,0-72.86,32.54-73.01,72.74v.27c0,40.33,32.69,73.02,73.01,73.02,2.02,0,4.01-.08,5.99-.24.88-.07,1.75-.16,2.62-.26.76-.09,1.51-.19,2.26-.3.45-.07.9-.14,1.34-.22l1.05-.18c.44-.08.88-.17,1.31-.26.35-.06.69-.14,1.04-.22.39-.08.77-.16,1.16-.26,3.28-.77,6.48-1.76,9.58-2.97.32-.12.64-.24.96-.37.36-.14.71-.29,1.06-.44.55-.23,1.1-.47,1.64-.72.38-.16.75-.33,1.12-.51.46-.21.91-.43,1.36-.66.98-.48,1.95-.99,2.9-1.53.45-.24.89-.5,1.34-.76.48-.28.96-.56,1.43-.86.54-.33,1.08-.67,1.61-1.01.39-.25.78-.51,1.16-.77.49-.33.97-.67,1.44-1.01.45-.31.89-.63,1.32-.96.45-.33.88-.66,1.32-1.01.44-.34.87-.69,1.3-1.04s.85-.7,1.27-1.08c.83-.7,1.64-1.43,2.43-2.18.05-.04.09-.08.14-.13.37-.34.74-.7,1.1-1.07.4-.38.8-.78,1.18-1.18.78-.8,1.53-1.61,2.26-2.44,1.1-1.25,2.17-2.53,3.18-3.85.34-.44.67-.88,1-1.34.26-.35.52-.7.77-1.06.2-.28.39-.56.59-.84.07-.11.15-.22.23-.34.24-.36.48-.72.72-1.09,2.22-3.4,4.17-7,5.8-10.76.18-.4.35-.8.51-1.21.17-.39.33-.79.48-1.19,1.33-3.37,2.41-6.86,3.22-10.45.1-.41.19-.82.27-1.23.1-.44.19-.89.27-1.35.07-.35.13-.7.19-1.06.12-.67.23-1.35.33-2.04.06-.42.12-.84.17-1.26.08-.64.16-1.3.22-1.95.05-.48.1-.97.13-1.45.03-.32.05-.65.07-.97.04-.45.06-.91.08-1.37.03-.58.05-1.17.07-1.76v-.03c.01-.59.02-1.19.02-1.78Z"/><path class="cls-12" d="M201.21,11.14c0,1.77-6.89,3.39-18.31,4.64-13.94-1.7-35.83-2.79-60.47-2.8h-.42c-23.39,0-44.34.97-58.41,2.51-9.93-1.2-15.83-2.71-15.83-4.35,0-3.94,34.35-7.14,76.72-7.14,2.32,0,4.62,0,6.89.03,39.14.32,69.83,3.39,69.83,7.11Z"/><path class="cls-11" d="M180.17,135.36v.27c0,.6-.01,1.19-.02,1.78v.03c-.02.59-.04,1.18-.07,1.76-.02.46-.04.91-.08,1.37-.02.32-.04.65-.07.97-.04.48-.08.97-.13,1.45-.06.65-.14,1.31-.22,1.95-.05.42-.11.84-.17,1.26-.1.69-.21,1.37-.33,2.04-.06.36-.12.71-.19,1.06-.08.46-.17.91-.27,1.35-.08.41-.17.82-.27,1.23-.81,3.59-1.89,7.08-3.22,10.45-.15.4-.31.8-.48,1.19-.16.41-.33.81-.51,1.21-1.63,3.76-3.58,7.36-5.8,10.76-.23.37-.47.73-.72,1.09-.08.12-.16.23-.23.34-.2.28-.39.56-.59.84-.25.36-.51.71-.77,1.06-.33.45-.66.9-1,1.34-1.01,1.32-2.08,2.6-3.18,3.85-.73.83-1.49,1.64-2.26,2.44-.39.4-.78.79-1.18,1.18-.36.36-.73.72-1.1,1.07-.05.05-.09.09-.14.13-.79.75-1.6,1.47-2.43,2.18-.42.37-.84.72-1.27,1.08-.43.35-.86.7-1.3,1.04s-.88.68-1.32,1.01-.88.65-1.32.96c-.47.34-.95.68-1.44,1.01-.38.26-.77.51-1.16.77-.53.34-1.07.68-1.61,1.01-.47.3-.95.58-1.43.86-.44.26-.89.52-1.34.76-.95.54-1.92,1.05-2.9,1.53-.45.22-.9.44-1.36.66-.37.17-.74.35-1.12.51-.54.25-1.09.49-1.64.72-.35.15-.7.3-1.06.44-.32.13-.64.26-.96.37-3.1,1.21-6.3,2.2-9.58,2.97-.38.09-.77.18-1.16.26-.35.08-.69.16-1.04.22-.43.09-.87.18-1.31.26l-1.05.18c-.44.08-.89.15-1.34.22-.75.11-1.5.21-2.26.3-.87.1-1.74.19-2.62.26-37.52-3.05-67.01-34.47-67.01-72.78v-.27c.14-38.18,29.58-69.45,67.01-72.5,37.44,3.04,66.88,34.32,67.02,72.5ZM137.37,134.92c0-16.14-12.94-29.25-29.02-29.52-.17-.01-.34-.01-.51-.01-16.31,0-29.53,13.22-29.53,29.53s13.22,29.53,29.53,29.53c1.94,0,3.84-.19,5.67-.55h.01c13.59-2.64,23.85-14.61,23.85-28.98Z"/><path class="cls-8" d="M182.9,15.78c-14.07,1.53-35.02,2.51-58.41,2.51-2.48,0-4.92-.01-7.34-.03-21.79-.19-40.93-1.24-53.55-2.77,14.07-1.54,35.02-2.51,58.41-2.51h.42c24.64,0,46.53,1.1,60.47,2.8Z"/><path class="cls-8" d="M108.35,105.4c16.08.27,29.02,13.38,29.02,29.52,0,14.37-10.26,26.34-23.85,28.98h-.01c-15.91-.47-28.66-13.5-28.66-29.52,0-14.24,10.08-26.13,23.5-28.91v-.07Z"/><path class="cls-2" d="M113.51,163.9c-1.83.36-3.73.55-5.67.55-16.31,0-29.53-13.22-29.53-29.53s13.22-29.53,29.53-29.53c.17,0,.34,0,.51.01v.07c-13.42,2.78-23.5,14.67-23.5,28.91,0,16.02,12.75,29.05,28.66,29.52Z"/><path class="cls-13" d="M107.16,62.62c2.02,0,4.01.08,5.99.24-37.43,3.05-66.87,34.32-67.01,72.5v.27c0,38.31,29.49,69.73,67.01,72.78-1.98.16-3.97.24-5.99.24-40.32,0-73.01-32.69-73.01-73.02v-.27c.15-40.2,32.78-72.74,73.01-72.74Z"/></g></g></g></svg>