<?xml version="1.0" encoding="UTF-8"?><svg xmlns="http://www.w3.org/2000/svg" width="3.54in" height="3.37in" viewBox="0 0 255.19 242.78"><defs><style>.cls-1,.cls-2{fill:none;}.cls-3{fill:#f1f1f1;}.cls-4{fill:gray;}.cls-5{mix-blend-mode:multiply;opacity:.5;}.cls-6{fill:#e5e5e5;}.cls-7{isolation:isolate;}.cls-8{fill:#ffb3d9;}.cls-9{fill:#fff;}.cls-10{fill:#666;}.cls-2{stroke:#000;stroke-miterlimit:10;}.cls-11{fill:#cbcbcb;}.cls-12{fill:#989898;}.cls-13{fill:#b2b2b2;}</style></defs><g class="cls-7"><g id="Layer_1"><path class="cls-8" d="M246.59,48.03c-.15,0-.29.03-.44.1l-3.18.1V.35H28.02L.5,27.87v214.41h214.14v-.28h.27l28.06-28.06v-27.05l3.62-.1v-.09c4.47,0,8.1-31.04,8.1-69.33s-3.63-69.34-8.1-69.34Z"/><line class="cls-1" x1="49.76" y1="88.3" x2="49.25" y2="88.81"/><g class="cls-5"><path class="cls-3" d="M246.17,48.13c.14-.07.28-.1.42-.1,4.47,0,8.1,31.04,8.1,69.34s-3.63,69.33-8.1,69.33c-3.03,0-5.67-14.3-7.06-35.46-.65-10.01-1.03-21.57-1.03-33.87,0-1.76,0-3.5.02-5.23.09-10.12.43-19.63.98-28.08,1.22-19.07,3.46-32.69,6.08-35.49.19-.21.39-.36.59-.44ZM250.8,115.24l-1.41-29.29-2.34,2.94-1.22,30.92.68,27.93,2.88-3.21,1.41-29.29Z"/><polygon class="cls-10" points="249.39 85.95 250.8 115.24 249.39 144.53 246.51 147.74 245.83 119.81 247.05 88.89 249.39 85.95"/><path class="cls-13" d="M242.97,48.23l3.2-.1c-.2.08-.4.23-.59.44-2.62,2.8-4.86,16.42-6.08,35.49-.55,8.45-.89,17.96-.98,28.08-.01,1.73-.02,3.47-.02,5.23,0,12.3.38,23.86,1.03,33.87,1.39,21.16,4.03,35.46,7.06,35.46v.09l-3.62.1-10.54.26v.09c-4.48-.05-8.09-31.07-8.09-69.33s3.62-69.33,8.09-69.33h0s10.54-.35,10.54-.35Z"/><path class="cls-6" d="M232.43,48.57h0c-4.47.01-8.09,31.05-8.09,69.34s3.61,69.28,8.08,69.33v-.09s10.55-.26,10.55-.26v27.05l-28.06,28.06h-.27V28.69L242.97.35v47.88l-10.54.34Z"/><path class="cls-6" d="M242.97.35l-28.33,28.34v-.55H.5v-.27L28.02.35h214.95ZM182.9,15.9c11.42-1.25,18.31-2.87,18.31-4.64,0-3.72-30.69-6.79-69.83-7.11-2.27-.02-4.57-.03-6.89-.03-42.37,0-76.72,3.2-76.72,7.14,0,1.64,5.9,3.15,15.83,4.35,12.62,1.53,31.76,2.58,53.55,2.77,2.42.02,4.86.03,7.34.03,23.39,0,44.34-.98,58.41-2.51Z"/><path class="cls-9" d="M214.64,242v.28H.5V28.14h214.14v213.86ZM180.17,135.75v-.27c-.14-38.18-29.58-69.46-67.02-72.5-1.98-.16-3.97-.24-5.99-.24-40.23,0-72.86,32.54-73.01,72.74v.27c0,40.33,32.69,73.02,73.01,73.02,2.02,0,4.01-.08,5.99-.24.64-.05,1.27-.11,1.9-.18.54-.06,1.07-.12,1.59-.19.53-.07,1.05-.14,1.58-.22.12-.02.24-.04.35-.05.51-.08,1.01-.17,1.52-.26.62-.11,1.24-.23,1.86-.36.51-.1,1.01-.21,1.52-.33.54-.12,1.09-.25,1.63-.39,1.6-.4,3.18-.86,4.74-1.37.34-.11.68-.22,1.01-.34.28-.09.56-.19.83-.29.49-.17.97-.35,1.46-.53.12-.05.24-.1.35-.14.45-.17.9-.35,1.35-.54.55-.22,1.09-.45,1.62-.69.49-.21.98-.43,1.47-.66.42-.19.84-.4,1.26-.61,1.97-.95,3.88-2,5.73-3.12.39-.23.77-.47,1.15-.72.29-.17.58-.36.86-.54.39-.26.78-.51,1.16-.77,1.86-1.26,3.65-2.6,5.38-4.02.43-.36.85-.71,1.27-1.08.42-.36.84-.72,1.25-1.1.32-.28.64-.57.95-.87.29-.26.57-.53.85-.8,2.61-2.51,5.03-5.21,7.24-8.08.34-.44.68-.89,1-1.34.68-.92,1.34-1.86,1.97-2.81.23-.34.45-.68.66-1.02.17-.25.33-.51.49-.77.27-.42.53-.85.78-1.28,1.3-2.17,2.48-4.42,3.55-6.73.2-.43.39-.86.58-1.3.24-.55.48-1.1.7-1.65.16-.38.31-.77.46-1.15.17-.44.34-.87.5-1.31.05-.13.09-.26.14-.39.14-.38.28-.77.4-1.16.17-.48.33-.97.48-1.45.31-.97.6-1.95.87-2.93.09-.32.17-.63.25-.95.18-.68.34-1.36.49-2.04.11-.44.2-.88.29-1.32.09-.43.18-.86.26-1.29.05-.3.11-.6.16-.91.13-.73.25-1.46.35-2.19.06-.39.11-.78.16-1.18.09-.66.17-1.33.23-2,.05-.48.1-.96.13-1.45.03-.32.05-.64.07-.97.04-.45.06-.91.08-1.37.03-.58.05-1.17.07-1.76v-.03c.01-.59.02-1.19.02-1.78Z"/><path class="cls-12" d="M201.21,11.26c0,1.77-6.89,3.39-18.31,4.64-13.94-1.7-35.83-2.79-60.47-2.8h-.42c-23.39,0-44.34.97-58.41,2.51-9.93-1.2-15.83-2.71-15.83-4.35,0-3.94,34.35-7.14,76.72-7.14,2.32,0,4.62.01,6.89.03,39.14.32,69.83,3.39,69.83,7.11Z"/><path class="cls-11" d="M180.17,135.48v.27c0,.6,0,1.19-.02,1.78v.03c-.02.59-.04,1.18-.07,1.76-.02.46-.04.92-.08,1.37-.02.32-.04.65-.07.97-.04.48-.08.97-.13,1.45-.06.67-.14,1.34-.23,2-.04.4-.1.79-.16,1.18-.1.73-.22,1.46-.35,2.19-.05.31-.1.61-.16.91-.08.43-.17.86-.26,1.29-.09.44-.19.88-.29,1.32-.15.68-.31,1.36-.49,2.04-.08.32-.17.63-.25.95-.27.98-.56,1.96-.87,2.93-.15.49-.31.97-.48,1.45-.13.39-.26.78-.4,1.16-.05.13-.09.26-.14.39-.16.44-.33.88-.5,1.31-.15.39-.3.77-.46,1.15-.22.55-.46,1.1-.7,1.65-.19.44-.38.87-.58,1.3-1.07,2.31-2.25,4.56-3.55,6.73-.25.43-.51.86-.78,1.28-.16.26-.32.52-.49.77-.21.34-.43.68-.66,1.02-.63.95-1.29,1.89-1.97,2.81-.33.45-.66.9-1,1.34-2.21,2.87-4.63,5.57-7.24,8.08-.28.27-.56.54-.85.8-.31.3-.63.59-.95.87-.41.38-.83.74-1.25,1.1-.42.37-.84.72-1.27,1.08-1.73,1.42-3.52,2.76-5.38,4.02-.38.26-.77.52-1.16.77-.28.18-.57.37-.86.54-.38.25-.76.49-1.15.72-1.85,1.12-3.76,2.17-5.73,3.12-.41.21-.83.41-1.26.61-.48.23-.98.45-1.47.66-.53.24-1.07.47-1.62.69-.45.19-.9.37-1.35.54-.11.04-.23.09-.35.14-.49.18-.97.36-1.46.53-.27.1-.55.2-.83.29-.33.12-.67.23-1.01.34-1.56.51-3.14.97-4.74,1.37-.54.14-1.08.27-1.63.39-.5.12-1.01.23-1.52.33-.62.13-1.24.25-1.86.36-.51.09-1.01.18-1.52.26-.11.01-.23.03-.35.05-.52.08-1.05.15-1.58.22-.52.07-1.05.13-1.59.19-.63.07-1.26.13-1.9.18-37.52-3.05-67.01-34.47-67.01-72.78v-.27c.14-38.18,29.58-69.45,67.01-72.5,37.44,3.04,66.88,34.32,67.02,72.5ZM144.46,135.75l-.16-.27-18.49-32.03h-37.3l-18.48,32.03-.16.27,18.64,32.3h37.3l18.65-32.3Z"/><path class="cls-10" d="M182.9,15.9c-14.07,1.53-35.02,2.51-58.41,2.51-2.48,0-4.92-.01-7.34-.03-21.79-.19-40.93-1.24-53.55-2.77,14.07-1.54,35.02-2.51,58.41-2.51h.42c24.64,0,46.53,1.1,60.47,2.8Z"/><polygon class="cls-10" points="144.3 135.48 144.46 135.75 125.81 168.05 96.41 168.05 77.77 135.75 77.93 135.48 96.41 103.45 125.81 103.45 144.3 135.48"/><path class="cls-13" d="M107.16,62.74c2.02,0,4.01.08,5.99.24-37.43,3.05-66.87,34.32-67.01,72.5v.27c0,38.31,29.49,69.73,67.01,72.78-1.98.16-3.97.24-5.99.24-40.32,0-73.01-32.69-73.01-73.02v-.27c.15-40.2,32.78-72.74,73.01-72.74Z"/><polygon class="cls-4" points="96.41 103.45 77.93 135.48 77.77 135.75 96.41 168.05 88.51 168.05 69.87 135.75 70.03 135.48 88.51 103.45 96.41 103.45"/></g><polygon class="cls-2" points=".5 28.14 .5 242.28 214.64 242.28 214.64 242 214.64 28.69 214.64 28.14 .5 28.14"/><line class="cls-2" x1="28.02" y1=".35" x2=".5" y2="27.87"/><line class="cls-2" x1="242.97" y1=".35" x2="214.64" y2="28.69"/><line class="cls-2" x1="242.97" y1="213.94" x2="214.91" y2="242"/><polyline class="cls-2" points="27.47 .35 28.02 .35 242.97 .35 243.24 .35"/><polyline class="cls-2" points="242.97 48.57 242.97 48.23 242.97 .35"/><line class="cls-2" x1="242.97" y1="213.94" x2="242.97" y2="186.97"/><path class="cls-2" d="M113.15,208.53c-1.98.16-3.97.24-5.99.24-40.32,0-73.01-32.69-73.01-73.02v-.27c.15-40.2,32.78-72.74,73.01-72.74,2.02,0,4.01.08,5.99.24"/><path class="cls-2" d="M180.15,137.53c.01-.59.02-1.19.02-1.78"/><path class="cls-2" d="M179.8,143.11c.05-.48.09-.97.13-1.45.03-.32.05-.65.07-.97.04-.45.06-.91.08-1.37.03-.58.05-1.17.07-1.76"/><path class="cls-2" d="M179.41,146.32c.06-.42.12-.84.17-1.26"/><path class="cls-2" d="M178.89,149.42c.07-.35.13-.7.19-1.06"/><path class="cls-2" d="M178.35,152c.1-.41.19-.82.27-1.23"/><path class="cls-2" d="M174.14,164.85c.18-.4.35-.8.51-1.21.17-.39.33-.79.48-1.19"/><path class="cls-2" d="M167.62,176.7c.25-.36.49-.72.72-1.09"/><path class="cls-2" d="M166.8,177.88c.2-.28.39-.56.59-.84"/><path class="cls-2" d="M165.03,180.28c.34-.44.67-.88,1-1.34"/><path class="cls-2" d="M157.31,188.82c.37-.34.74-.7,1.1-1.07.4-.38.8-.78,1.18-1.18.78-.8,1.53-1.61,2.26-2.44"/><path class="cls-2" d="M153.47,192.21c.43-.35.85-.7,1.27-1.08.83-.7,1.64-1.43,2.43-2.18"/><path class="cls-2" d="M149.53,195.22c.45-.31.89-.63,1.32-.96.45-.33.88-.66,1.32-1.01"/><path class="cls-2" d="M146.93,197c.39-.25.78-.51,1.16-.77"/><path class="cls-2" d="M142.55,199.63c.45-.24.89-.5,1.34-.76.48-.28.96-.56,1.43-.86"/><path class="cls-2" d="M137.17,202.33c.38-.16.75-.34,1.12-.51.46-.22.91-.44,1.36-.66"/><path class="cls-2" d="M133.51,203.86c.32-.12.64-.24.96-.37.36-.14.71-.29,1.06-.44"/><path class="cls-2" d="M122.77,207.09c.39-.08.78-.17,1.16-.26"/><path class="cls-2" d="M118.03,207.97c.45-.07.9-.14,1.34-.22l1.05-.18c.44-.08.88-.17,1.31-.26"/><path class="cls-2" d="M113.15,208.53c.88-.07,1.75-.16,2.62-.26"/><path class="cls-2" d="M113.15,62.98c-37.43,3.05-66.87,34.32-67.01,72.5v.27c0,38.31,29.49,69.73,67.01,72.78.88-.07,1.75-.16,2.62-.26.76-.09,1.51-.19,2.26-.3.45-.07.9-.14,1.34-.22l1.05-.18c.44-.08.88-.17,1.31-.26.35-.06.69-.14,1.04-.22.39-.08.77-.16,1.16-.26,3.28-.77,6.48-1.76,9.58-2.97.32-.11.64-.24.96-.37.36-.14.71-.29,1.06-.44.55-.23,1.1-.47,1.64-.72.38-.16.75-.33,1.12-.51.46-.21.91-.43,1.36-.66.98-.48,1.95-.99,2.9-1.53.45-.24.9-.5,1.34-.76.48-.28.96-.56,1.43-.86.54-.33,1.08-.67,1.61-1.01.39-.26.78-.51,1.16-.77.49-.33.97-.67,1.44-1.01.44-.31.88-.63,1.32-.96s.88-.67,1.32-1.01.87-.69,1.3-1.04c.43-.36.85-.71,1.27-1.08.83-.71,1.64-1.43,2.43-2.18.05-.04.09-.08.14-.13.37-.35.74-.71,1.1-1.07.4-.39.79-.78,1.18-1.18.77-.8,1.53-1.61,2.26-2.44,1.1-1.25,2.17-2.53,3.18-3.85.34-.44.67-.89,1-1.34.26-.35.52-.7.77-1.06.2-.28.39-.56.59-.84.07-.11.15-.22.23-.34.24-.36.48-.72.72-1.09,2.22-3.4,4.17-7,5.8-10.76.18-.4.35-.8.51-1.21.17-.39.33-.79.48-1.19,1.33-3.37,2.41-6.86,3.22-10.45.1-.41.19-.82.27-1.23.1-.44.19-.89.27-1.35.07-.35.13-.7.19-1.06.12-.67.23-1.35.33-2.04.06-.42.12-.84.17-1.26.08-.64.16-1.3.22-1.95.05-.48.1-.97.13-1.45.03-.32.05-.65.07-.97.04-.46.06-.91.08-1.37.03-.58.05-1.17.07-1.76v-.03c.01-.59.02-1.18.02-1.78v-.27c-.14-38.18-29.58-69.46-67.02-72.5Z"/><path class="cls-2" d="M232.43,187.24c-.07,0-.14-.01-.21-.02-4.37-.95-7.88-31.62-7.88-69.31s3.62-69.33,8.09-69.33"/><path class="cls-2" d="M246.15,48.13c.15-.07.29-.1.44-.1,4.47,0,8.1,31.04,8.1,69.34s-3.63,69.33-8.1,69.33c-3.03,0-5.67-14.3-7.06-35.46-.65-10.01-1.03-21.57-1.03-33.87,0-1.76,0-3.5.02-5.23.09-10.12.43-19.63.98-28.08,1.22-19.07,3.46-32.69,6.08-35.49.19-.2.38-.35.57-.44Z"/><polyline class="cls-2" points="96.41 168.05 88.51 168.05 69.87 135.75 70.03 135.48 88.51 103.45 96.41 103.45"/><polyline class="cls-2" points="125.81 168.05 96.41 168.05 77.77 135.75 77.93 135.48 96.41 103.45 125.81 103.45"/><polyline class="cls-2" points="125.81 168.05 144.46 135.75 144.3 135.48 125.81 103.45"/><polyline class="cls-2" points="232.35 48.57 232.43 48.57 242.97 48.23 246.15 48.13 246.6 48.12"/><polyline class="cls-2" points="232.44 187.15 242.97 186.89 246.59 186.79 246.79 186.79"/><path class="cls-2" d="M63.6,15.61c-9.93-1.2-15.83-2.71-15.83-4.35,0-3.94,34.35-7.14,76.72-7.14,2.32,0,4.62.01,6.89.03,39.14.32,69.83,3.39,69.83,7.11,0,1.77-6.89,3.39-18.31,4.64"/><path class="cls-2" d="M63.6,15.61c14.07-1.54,35.02-2.51,58.41-2.51h.42c24.64.01,46.53,1.1,60.47,2.8"/><path class="cls-2" d="M63.6,15.61c12.62,1.53,31.76,2.58,53.55,2.77,2.42.02,4.86.03,7.34.03,23.39,0,44.34-.98,58.41-2.51"/><polygon class="cls-2" points="249.4 85.96 247.06 88.89 245.83 119.82 246.51 147.74 249.4 144.53 250.81 115.24 249.4 85.96"/></g></g></svg>