<?xml version="1.0" encoding="UTF-8"?><svg id="Layer_1" xmlns="http://www.w3.org/2000/svg" width="146.01" height="201.12" viewBox="0 0 146.01 201.12"><defs><style>.cls-1,.cls-2,.cls-3,.cls-4,.cls-5{stroke:#000;stroke-miterlimit:10;}.cls-1,.cls-6{fill:#838db7;}.cls-7{fill:#fa8c97;}.cls-2{fill:#fff;}.cls-3{fill:none;}.cls-8{fill:#cfd4e5;}.cls-5{fill:#333;}</style></defs><path class="cls-8" d="M107.82,134.81c3.55,10.58,10.12,32.98,7.93,43.92-2.17,10.76-7.98,13.36-11.53,14.84-17.79,7.41-60.71,7.56-78.14-.67-4.56-2.15-9.85-6.96-11.07-11.85-2.56-10.31.74-32.17,3.97-42.28,2.75-8.63,18.16-31.38,18.16-31.38h56.81s11.43,20.13,13.87,27.42Z"/><path class="cls-6" d="M143.42,139.78c3.92,10.43,2.08,22.2-3.42,31.7-4.52,8.15-11.77,14.25-20.31,18.03-10.77,5.21-49.61,10.39-24.52-9.31l.16-.13c12.48-9.76,26.66-14.51,27.43-32.52.68-6.27-.15-13.53,1.52-19.33,4.13-10.85,16.83,3.31,19.14,11.56Z"/><path class="cls-3" d="M95.33,180.07c12.48-9.76,26.66-14.51,27.43-32.52.68-6.27-.15-13.53,1.52-19.33,4.13-10.85,16.83,3.31,19.14,11.56,3.92,10.43,2.08,22.2-3.42,31.7-4.52,8.15-11.77,14.25-20.31,18.03-10.77,5.21-49.61,10.39-24.52-9.31l.16-.13Z"/><path class="cls-8" d="M114.49,159.28c1.47,7.39,2.24,14.56,1.26,19.45-2.17,10.76-7.98,13.36-11.53,14.84-17.79,7.41-60.71,7.56-78.14-.67-4.32-2.04-9.29-6.45-10.83-11.07l.85-.29c-.89-24.07,3.6-32.12,8.68-34.3,4.57-1.97,9.07,1.07,12.97-2.22,3.8-3.21,2.68-8.73,3.45-18.82.36-4.7,1.18-11.13,3.26-18.81h30.09c3.69,3.58,7.79,8.66,10.26,15.51,3.63,10.09,1.91,19.03,6.43,20.88,3.91,1.59,7.7-4.06,10.81-2.25,3.23,1.88-1.08,10.47,3.05,20.14.74,1.74,1.62,3.21,2.98,3.46,3.06.57,6.21-5.48,6.41-5.85Z"/><path class="cls-6" d="M114.49,159.27h0c-.2.38-3.35,6.43-6.41,5.86-1.36-.25-2.24-1.72-2.98-3.46-4.13-9.67.18-18.26-3.05-20.14-3.11-1.81-6.9,3.84-10.81,2.25-4.52-1.85-2.8-10.79-6.43-20.88-2.47-6.85-6.57-11.93-10.26-15.51h19.4s11.43,20.13,13.87,27.42c1.96,5.85,4.85,15.32,6.67,24.46Z"/><path class="cls-6" d="M37.14,107.39h7.32c-2.08,7.68-2.9,14.11-3.26,18.81-.77,10.09.35,15.61-3.45,18.82-3.9,3.29-8.4.25-12.97,2.22-5.08,2.18-9.57,10.23-8.68,34.3l-.85.29c-.1-.26-.17-.52-.24-.78-2.56-10.31.74-32.17,3.97-42.28,2.75-8.63,18.16-31.38,18.16-31.38Z"/><path class="cls-3" d="M114.49,159.27c-1.82-9.14-4.71-18.61-6.67-24.46-2.44-7.29-13.87-27.42-13.87-27.42h-56.81s-15.41,22.75-18.16,31.38c-3.23,10.11-6.53,31.97-3.97,42.28.07.26.14.52.24.78,1.54,4.62,6.51,9.03,10.83,11.07,17.43,8.23,60.35,8.08,78.14.67,3.55-1.48,9.36-4.08,11.53-14.84.98-4.89.21-12.06-1.26-19.45"/><path class="cls-3" d="M37.14,107.39s-15.41,22.75-18.16,31.38c-3.23,10.11-6.53,31.97-3.97,42.28,1.22,4.89,6.51,9.7,11.07,11.85,17.43,8.23,60.35,8.08,78.14.67,3.55-1.48,9.36-4.08,11.53-14.84,2.19-10.94-4.38-33.34-7.93-43.92-2.44-7.29-13.87-27.42-13.87-27.42h-56.81Z"/><path class="cls-1" d="M63.92,191.26c0,5.17-6.77,9.36-15.12,9.36s-13.97-4.19-13.97-9.36,5.62-9.36,13.97-9.36,15.12,4.19,15.12,9.36Z"/><path class="cls-1" d="M92.96,191.26c0,5.17-5.48,9.36-13.86,9.36s-15.17-4.19-15.17-9.36,6.79-9.36,15.17-9.36,13.86,4.19,13.86,9.36Z"/><path class="cls-3" d="M27.83,151.18c1.27,10.09,6.37,25,10.62,33.63"/><path class="cls-3" d="M54.31,154.33c1.25,9.55,6.04,23.36,7.25,31.95"/><path class="cls-3" d="M101.3,151.18c-1.25,9.91-7.26,26.04-11.31,34"/><path class="cls-3" d="M74.2,154.33c-1.25,9.55-6.7,23.48-7.91,32.07"/><path class="cls-8" d="M12.18,49.92S1.74,6.89,12.84,1.04c8.44-4.45,30.82,20.25,30.82,20.25,0,0,5.07-2.64,19.82-2.64,18.72,0,24.44,2.64,24.44,2.64,0,0,21.82-19.06,28.84-14.97,11.57,6.74,2.1,52.96,2.1,52.96,0,0,10.01,11.77,10.9,16.62.46,2.54-7.93,6.6-7.93,6.6,0,0,4.95,5.49,4.62,7.71-.98,6.71-13.99,15.21-20.03,18.28-6.54,3.31-19.9,9.79-27.09,11.22-7.61,1.52-23.4,1.36-31.04,0-6.76-1.2-20.12-5.56-25.76-9.46-6.58-4.56-20.93-16.22-20.92-24.22,0-1.78,4.18-5.73,4.18-5.73,0,0-5.57-2.52-5.28-4.18,1.3-7.58,11.67-26.2,11.67-26.2Z"/><path class="cls-6" d="M118.87,59.59s10.01,11.77,10.9,16.62c.46,2.54-7.93,6.6-7.93,6.6,0,0,4.95,5.49,4.62,7.71-.52,3.54-4.37,7.57-8.79,11.04-12.46-4.54-19.7-6.12-24.17-6.5-1.35-.11-5.47-.37-9.59-2.98-1.35-.86-4.83-3.33-8.84-11.91-3.14-6.74-7.59-16.27-5.4-27.51,1.07-5.49,2.62-5.76,4.3-11.3,1.6-5.3,2.43-12.53.14-22.07,10.36.71,13.82,2.31,13.82,2.31,0,0,21.82-19.06,28.84-14.97,11.57,6.74,2.1,52.96,2.1,52.96ZM111.44,22.99c-.63.68-1.21,1.42-1.77,2.17-2.73,3.62-5.25,7.41-7.55,11.32,3.4,3.43,6.32,6.93,8.99,10.66.46-8.03,1.04-16.03.33-24.15Z"/><path class="cls-7" d="M111.44,22.99c.71,8.12.13,16.12-.33,24.15-2.67-3.73-5.59-7.23-8.99-10.66,2.3-3.91,4.82-7.7,7.55-11.32.56-.75,1.14-1.49,1.77-2.17Z"/><path class="cls-6" d="M20.27,40.63c2.79-2.6,5.78-4.99,8.98-7.08-2.65-5.91-7.23-10.86-10.13-16.6-.68,8.14.22,15.59,1.15,23.68ZM63.49,18.96h.24c-2.87,9.81-7.93,20.22-17.13,28.25-9.37,8.17-14.73,6.66-22.99,15.14-14,14.37-12.43,32.92-17.79,33.12h-.01c-2.49-3.19-4.19-6.38-4.19-9.13,0-1.78,4.18-5.73,4.18-5.73,0,0-5.57-2.52-5.28-4.18,1.3-7.58,11.67-26.2,11.67-26.2,0,0-10.44-43.03.66-48.88,8.44-4.45,30.82,20.25,30.82,20.25,0,0,5.07-2.64,19.82-2.64Z"/><path class="cls-7" d="M19.12,16.95c2.9,5.74,7.48,10.69,10.13,16.6-3.2,2.09-6.19,4.48-8.98,7.08-.93-8.09-1.83-15.54-1.15-23.68Z"/><path class="cls-3" d="M17.48,13.01c.44,1.36,1,2.67,1.64,3.94,2.9,5.74,7.48,10.69,10.13,16.6-3.2,2.09-6.19,4.48-8.98,7.08-1.24,1.15-2.44,2.34-3.61,3.56-1.81,1.89-3.54,3.93-4.48,6.37"/><path class="cls-3" d="M113.55,21.21c-.79.48-1.48,1.1-2.11,1.78s-1.21,1.42-1.77,2.17c-2.73,3.62-5.25,7.41-7.55,11.32,3.4,3.43,6.32,6.93,8.99,10.66,2.78,3.86,5.27,7.96,7.76,12.45"/><ellipse class="cls-5" cx="39.16" cy="75.24" rx="6.11" ry="11.23"/><ellipse class="cls-5" cx="89.06" cy="75.24" rx="6.11" ry="11.23"/><ellipse class="cls-2" cx="38.43" cy="71.42" rx="2.69" ry="4.94"/><ellipse class="cls-2" cx="88.13" cy="71.42" rx="2.69" ry="4.94"/><path class="cls-4" d="M68.94,84.29c0,2.67-2.74,4.84-6.11,4.84s-6.11-2.17-6.11-4.84,2.74-2.77,6.11-2.77,6.11.1,6.11,2.77Z"/><path class="cls-3" d="M51.77,94.2c.8,2.48,2.81,4.26,4.95,4.4,2.98.2,6.2-2.78,6.09-6.92-.53,3.48,1.94,6.6,5.04,6.92,2.66.28,5.35-1.54,6.17-4.4"/><path class="cls-3" d="M43.66,21.29s5.07-2.64,19.82-2.64c18.72,0,24.44,2.64,24.44,2.64,0,0,21.82-19.06,28.84-14.97,11.57,6.74,2.1,52.96,2.1,52.96,0,0,10.01,11.77,10.9,16.62.46,2.54-7.93,6.6-7.93,6.6,0,0,4.95,5.49,4.62,7.71-.98,6.71-13.99,15.21-20.03,18.28-6.54,3.31-19.9,9.79-27.09,11.22-7.61,1.52-23.4,1.36-31.04,0-6.76-1.2-20.12-5.56-25.76-9.46-6.58-4.56-20.93-16.22-20.92-24.22,0-1.78,4.18-5.73,4.18-5.73,0,0-5.57-2.52-5.28-4.18,1.3-7.58,11.67-26.2,11.67-26.2,0,0-10.44-43.03.66-48.88,8.44-4.45,30.82,20.25,30.82,20.25Z"/></svg>