<?xml version="1.0" encoding="UTF-8"?><svg id="Layer_1" xmlns="http://www.w3.org/2000/svg" width="146" height="200.81" viewBox="0 0 146 200.81"><defs><style>.cls-1,.cls-2{fill:#fff9de;}.cls-3{fill:#fcb517;}.cls-2,.cls-4,.cls-5,.cls-6{stroke:#000;stroke-miterlimit:10;}.cls-7{fill:#fff;}.cls-4{fill:none;}.cls-8{fill:#ffee8c;}.cls-6{fill:#333;}</style></defs><path class="cls-8" d="M123.74,127.91c4.13-10.85,16.83,3.31,19.14,11.56,3.92,10.43,2.08,22.2-3.42,31.7-4.52,8.15-11.77,14.25-20.31,18.03-10.77,5.21-49.61,10.39-24.52-9.31l.16-.13c12.48-9.76,26.66-14.51,27.43-32.52.68-6.27-.15-13.53,1.52-19.33Z"/><path class="cls-3" d="M144.22,141.94c.78,2.71,1.19,5.49,1.26,8.28-7.97-1.02-15.71-3.89-22.43-8.31.02-.67.03-1.34.04-2.01,6.96,1.32,14.04,2,21.13,2.04Z"/><path class="cls-3" d="M144.69,158.95c-.65,3.12-1.68,6.17-3.05,9.05-3.27-.49-6.45-1.44-9.34-3.04-4.32-2.39-7.74-6.05-10.97-9.82.1-.24.17-.49.24-.74,6.99,3.61,15.12,4.31,23.12,4.55Z"/><path class="cls-3" d="M141.08,134.33c-1-.08-2-.17-3-.25-1.8-.14-3.6-.29-5.38-.62-3.09-.59-6.05-1.72-9.06-2.6.01-.12.03-.24.06-.36,5.17.6,10.36.95,15.55,1.07.67.9,1.29,1.83,1.83,2.76Z"/><path class="cls-3" d="M135.69,177.38c-2.89,3.45-6.35,6.38-10.22,8.77-2.28-3-3.89-6.54-4.97-10.17-1.39-4.69-1.97-9.57-2.46-14.44.09-.12.18-.24.26-.37,2.84,7.7,9.55,13.83,17.39,16.21Z"/><path class="cls-4" d="M125.47,186.15c-1.84,1.14-3.78,2.16-5.79,3.05-10.77,5.21-49.61,10.39-24.52-9.31l.16-.13c8.31-6.5,17.37-10.77,22.72-18.22.09-.12.18-.24.26-.37,1.25-1.8,2.29-3.78,3.03-6.03.1-.24.17-.49.24-.74.66-2.13,1.06-4.5,1.18-7.16.19-1.72.26-3.51.3-5.33.02-.67.03-1.34.04-2.01.05-3.08.1-6.18.55-9.04.01-.12.03-.24.06-.36.14-.89.33-1.76.57-2.59,2.93-7.71,10.19-2.79,14.98,3.66.67.9,1.29,1.83,1.83,2.76,1.07,1.78,1.89,3.57,2.33,5.14.31.82.58,1.64.81,2.47.78,2.71,1.19,5.49,1.26,8.28.09,2.93-.19,5.86-.79,8.73-.65,3.12-1.68,6.17-3.05,9.05-.5,1.08-1.05,2.14-1.65,3.17-1.23,2.22-2.67,4.3-4.3,6.21-2.89,3.45-6.35,6.38-10.22,8.77Z"/><path class="cls-8" d="M107.81,134.5c3.55,10.58,10.12,32.98,7.93,43.92-2.17,10.76-7.98,13.36-11.53,14.84-17.79,7.41-60.71,7.56-78.14-.67-4.56-2.15-9.85-6.96-11.07-11.85-2.56-10.31.74-32.17,3.97-42.28,2.75-8.63,18.16-31.38,18.16-31.38h56.81s11.43,20.13,13.87,27.42Z"/><path class="cls-3" d="M108.81,137.54h0c-1.54.84-3.55,1.7-6.01,2.18-.86.17-4.26.79-8.59-.09-3.08-.63-5.43-1.77-6.92-2.64,3.64-1.31,7.39-2.74,11.22-4.29,2.49-1.01,4.92-2.03,7.29-3.06.87,1.9,1.58,3.58,2.01,4.86.31.93.65,1.95,1,3.04Z"/><path class="cls-3" d="M104.02,125.94c-1.65,1.11-4.06,2.34-7.17,2.86-4.31.71-7.75-.32-9.31-.9,1.63-1.32,3.33-2.65,5.11-3.98,2.57-1.92,5.11-3.68,7.61-5.31,1.27,2.4,2.58,4.94,3.76,7.33Z"/><path class="cls-3" d="M33.24,123.04c2.71,2.05,5.2,4.1,7.46,6.08-1.71.67-5.45,1.88-10.2,1.24-2.69-.36-4.92-1.21-6.62-2.09,1.55-2.76,3.29-5.66,4.99-8.39,1.43.99,2.89,2.04,4.37,3.16Z"/><path class="cls-3" d="M40.16,135.63c-1.72,1.08-4.16,2.5-7.22,3.9-2.05.94-4.9,2.24-7.8,2.93-1.53.36-4.07.78-7.42.48.41-1.66.83-3.17,1.25-4.48.57-1.79,1.67-4.17,3.07-6.84,1.79.55,3.67,1.08,5.63,1.57,4.48,1.12,8.67,1.9,12.49,2.44Z"/><path class="cls-4" d="M108.81,137.54c-.35-1.09-.69-2.11-1-3.04-.43-1.28-1.14-2.96-2.01-4.86-.54-1.17-1.14-2.41-1.78-3.7-1.18-2.39-2.49-4.93-3.76-7.33-3.28-6.18-6.32-11.53-6.32-11.53h-56.81s-3.99,5.88-8.26,12.8c-1.7,2.73-3.44,5.63-4.99,8.39-.65,1.15-1.27,2.27-1.84,3.35-1.4,2.67-2.5,5.05-3.07,6.84-.42,1.31-.84,2.82-1.25,4.48-2.74,11.11-4.95,28.83-2.72,37.8,1.22,4.89,6.51,9.7,11.07,11.85,17.43,8.23,60.35,8.08,78.14.67,3.55-1.48,9.36-4.08,11.53-14.84,2-9.98-3.29-29.49-6.93-40.87"/><path class="cls-2" d="M63.49,190.95c0,5.17-6.74,9.36-15.05,9.36s-13.91-4.19-13.91-9.36,5.6-9.36,13.91-9.36,15.05,4.19,15.05,9.36Z"/><path class="cls-2" d="M92.95,190.95c0,5.17-5.4,9.36-13.65,9.36s-14.93-4.19-14.93-9.36,6.69-9.36,14.93-9.36,13.65,4.19,13.65,9.36Z"/><path class="cls-4" d="M27.83,150.87c1.25,9.91,6.26,24.55,10.45,33.03"/><path class="cls-4" d="M54.3,154.02c1.25,9.66,6.04,23.63,7.25,32.33"/><path class="cls-4" d="M101.29,150.87c-1.25,9.91-7.26,26.04-11.31,34"/><ellipse class="cls-1" cx="63.94" cy="134.95" rx="10.27" ry="34.01"/><path class="cls-8" d="M118.86,59.28s10.01,11.77,10.9,16.62c.46,2.54-7.93,6.6-7.93,6.6,0,0,4.95,5.49,4.62,7.71-.98,6.71-13.99,15.21-20.03,18.28-6.54,3.31-19.9,9.79-27.09,11.22-7.61,1.52-23.4,1.36-31.04,0-6.76-1.2-20.12-5.56-25.76-9.46-6.58-4.56-20.93-16.22-20.92-24.22,0-1.78,4.18-5.73,4.18-5.73,0,0-5.57-2.52-5.28-4.18,1.3-7.58,11.67-26.2,11.67-26.2,0,0-10.44-43.03.66-48.88,8.44-4.45,30.82,20.25,30.82,20.25,0,0,5.07-2.64,19.82-2.64,18.72,0,24.44,2.64,24.44,2.64,0,0,21.82-19.06,28.84-14.97,11.57,6.74,2.1,52.96,2.1,52.96Z"/><path class="cls-3" d="M128.75,73.19l-.44.13c-2.65.41-5.97.68-9.77.47-4.46-.25-8.22-1.09-11.08-1.96,1.92-1.43,5.13-3.47,9.54-4.74,2.66-.77,5.1-1.06,7.12-1.13,1.75,2.39,3.53,5.04,4.63,7.23Z"/><path class="cls-3" d="M124.52,85.88c-2.29-.23-4.95-.7-7.83-1.58-4.76-1.46-8.41-3.54-10.88-5.2,3.18-.8,7.33-1.53,12.22-1.6,3.97-.07,7.47.32,10.34.84-2.28,2.1-6.54,4.16-6.54,4.16,0,0,1.42,1.57,2.69,3.38Z"/><path class="cls-1" d="M113.62,22.18c.54,3.65.9,7.93.84,12.72-.06,3.99-.4,7.63-.88,10.84.3-4.48.44-9.22.39-14.21-.04-3.24-.16-6.35-.35-9.35Z"/><path class="cls-1" d="M113.97,31.53c.05,4.99-.09,9.73-.39,14.21-.19,1.32-.41,2.57-.64,3.74h0c-3.15-4.73-6.61-9.07-10.82-13.31,2.3-3.91,4.82-7.7,7.55-11.32,1.1-1.46,2.25-2.91,3.78-3.88.06.4.12.8.18,1.21.19,3,.31,6.11.35,9.35Z"/><path class="cls-8" d="M113.54,20.9c.03.42.06.85.08,1.28-.06-.41-.12-.81-.18-1.21.03-.03.07-.05.1-.07Z"/><path class="cls-3" d="M74.3,18.99c5.14.37,8.56.95,10.69,1.43-.08,3.54-.63,7.83-2.2,12.47-1.37,4.05-3.17,7.31-4.78,9.74-1.11-3.97-2.14-8.59-2.84-13.75-.49-3.51-.75-6.83-.87-9.89Z"/><path class="cls-3" d="M70.38,18.78c-.01,3.2-.32,6.9-1.18,10.92-1.17,5.4-3,9.77-4.64,12.98-1.37-3.61-2.71-8.04-3.61-13.19-.67-3.88-.97-7.51-1.04-10.78,1.12-.04,2.31-.06,3.57-.06,2.53,0,4.83.05,6.9.13Z"/><path class="cls-3" d="M54.62,19.02c.23,3.16.18,6.98-.55,11.22-.84,4.83-2.31,8.77-3.66,11.66-1.75-3.07-3.82-7.47-5.12-13.05-.64-2.77-.99-5.38-1.14-7.77,1.13-.45,4.3-1.5,10.47-2.06Z"/><path class="cls-1" d="M17.5,12.8c2.44,7.49,8.52,13.25,11.74,20.44-3.52,2.3-6.79,4.96-9.83,7.87-.53-1.38-1.02-2.85-1.45-4.42-.36-1.3-.66-2.58-.9-3.83-.05-1.03-.09-2.07-.13-3.12-.21-6-.11-11.62.19-16.81l.38-.13Z"/><path class="cls-3" d="M10.68,65.96c5.36.95,9.36,3.02,11.71,4.47-2.98,1.28-7.45,2.79-13.05,3.26-3.08.25-5.84.13-8.19-.14.72-2.35,1.89-5.21,3.2-8.11,1.89-.02,4.03.11,6.33.52Z"/><path class="cls-1" d="M16.93,29.74c.04,1.05.08,2.09.13,3.12-1.55-8.02-.87-15.05.06-19.93-.3,5.19-.4,10.81-.19,16.81Z"/><path class="cls-3" d="M21.3,78.09c-6.36,3.55-12.96,6.09-19.64,7.57.47-1.9,4.13-5.36,4.13-5.36,0,0-3.26-1.47-4.66-2.91,6.72-.58,13.47-.35,20.17.7Z"/><ellipse class="cls-6" cx="39.16" cy="74.93" rx="6.11" ry="11.23"/><ellipse class="cls-6" cx="89.05" cy="74.93" rx="6.11" ry="11.23"/><ellipse class="cls-7" cx="38.43" cy="72.41" rx="2.69" ry="4.66"/><ellipse class="cls-7" cx="88.12" cy="72.61" rx="2.69" ry="4.86"/><path class="cls-5" d="M68.93,83.97c0,2.67-2.74,4.84-6.11,4.84s-6.11-2.17-6.11-4.84,2.74-2.77,6.11-2.77,6.11.1,6.11,2.77Z"/><path class="cls-4" d="M51.76,93.4s2.26,4.89,4.95,4.89c3.08,0,5.51-2.36,6.11-4.89.2-.83.18-1.58.12-2.14-.02.58-.03,2.67,1.32,4.58.23.32,1.54,2.17,3.57,2.44,2.38.32,4.97-1.63,6.17-4.89"/><path class="cls-4" d="M17.47,12.7c2.42,7.54,8.54,13.32,11.77,20.54-4.61,3.01-8.79,6.65-12.59,10.64-1.81,1.89-3.54,3.93-4.48,6.37"/><path class="cls-4" d="M113.54,20.9c-1.58.97-2.76,2.46-3.88,3.95-2.73,3.62-5.25,7.41-7.55,11.32,6.95,7,11.87,14.3,16.75,23.11"/><path class="cls-4" d="M43.66,21.29s5.07-2.64,19.82-2.64c18.72,0,24.44,2.64,24.44,2.64,0,0,21.82-19.06,28.84-14.97,11.57,6.74,2.1,52.96,2.1,52.96,0,0,10.01,11.77,10.9,16.62.46,2.54-7.93,6.6-7.93,6.6,0,0,4.95,5.49,4.62,7.71-.98,6.71-13.99,15.21-20.03,18.28-6.54,3.31-19.9,9.79-27.09,11.22-7.61,1.52-23.4,1.36-31.04,0-6.76-1.2-20.12-5.56-25.76-9.46-6.58-4.56-20.93-16.22-20.92-24.22,0-1.78,4.18-5.73,4.18-5.73,0,0-5.57-2.52-5.28-4.18,1.3-7.58,11.67-26.2,11.67-26.2,0,0-10.44-43.03.66-48.88,8.44-4.45,30.82,20.25,30.82,20.25Z"/><path class="cls-4" d="M74.2,154.02c-1.25,9.66-6.7,23.74-7.91,32.44"/></svg>